
<svg version="1.1" xmlns="http://www.w3.org/2000/svg" viewBox="0 0 1343 710.073486328125" width="1343" height="710.073486328125">
  <!-- svg-source:excalidraw -->
  
  <defs>
    <style class="style-fonts">
      @font-face {
        font-family: "Virgil";
        src: url("https://excalidraw.com/Virgil.woff2");
      }
      @font-face {
        font-family: "Cascadia";
        src: url("https://excalidraw.com/Cascadia.woff2");
      }
    </style>
  </defs>
  <rect x="0" y="0" width="1343" height="710.073486328125" fill="#ffffff"></rect><g stroke-linecap="round" transform="translate(10 320.3026123046875) rotate(0 76 82.5)"><path d="M10.91 38.64 C10.91 38.64, 10.91 38.64, 10.91 38.64 M10.91 38.64 C10.91 38.64, 10.91 38.64, 10.91 38.64 M8.05 50.79 C13.47 41.21, 24.38 29.53, 36.51 16.72 M6.93 49.25 C15.4 39.38, 21.94 31.09, 34.64 16.78 M5.21 59.74 C14.92 44.85, 31.34 27.88, 45.15 11.46 M5.46 57.54 C15.04 46.09, 24.5 35.73, 44.02 13.93 M0.64 67.25 C21.39 46.49, 38.69 26.25, 52.5 8.73 M2.03 67.24 C19.53 47.8, 37.07 26.54, 52.97 8.64 M2.79 72.77 C20.52 51, 37.31 31.43, 64.74 2.74 M3.08 73.09 C14.87 59.55, 26.58 44.54, 62.12 3.9 M4.62 76.55 C24.97 52.55, 48.47 26.93, 70.49 2.25 M3.98 78.14 C22.87 56.67, 43.29 32.74, 69.05 2.79 M5.3 83.79 C27.6 56.3, 53.05 27.54, 73.22 3.71 M2.89 83.9 C27.98 54.39, 53.61 26.58, 72.68 3.52 M4.37 87.48 C20.75 72.09, 37.97 53.2, 78.77 1.58 M4.78 89.14 C30.4 59.1, 56.3 28.19, 78.82 1.87 M2.35 95.58 C26.76 69.35, 50.35 45.25, 83.37 4.33 M4.14 95.11 C28.2 67.54, 52.72 38.89, 84.14 3.1 M5.45 98.3 C35.5 67.6, 64.96 31.88, 90.86 4.41 M5.62 100.84 C31.05 69.14, 57.26 38.46, 89.42 1.98 M5.55 108.63 C28.71 80.22, 53.28 51.3, 95.46 4.32 M4.06 107.6 C27.84 79.53, 53.7 50.5, 94.34 2.77 M7.45 109.51 C36.58 72.07, 69.07 36.48, 97.03 4.78 M7.71 110.13 C43.17 69.96, 79.37 27.36, 98.74 5.51 M7.74 113.42 C36.36 80.75, 67.02 47.47, 102.43 7.23 M9.11 114.22 C33.28 85.23, 58.42 54.84, 101.9 6.43 M8.6 118.59 C48.95 74.22, 85.89 30.89, 106.19 9.66 M10.9 118.87 C28.9 96.78, 49.03 73.2, 105.31 7.82 M13.23 122.22 C51.38 80.18, 90.47 37.58, 107.84 9.03 M13.23 121.6 C42.31 88.7, 72.42 53.7, 109.96 10.42 M15.83 126.8 C39.5 96.06, 66.63 67.75, 111.9 13.31 M13.75 126.69 C52.06 85.47, 86.75 42.34, 112.33 11.53 M18.27 130.78 C44.47 96.47, 77.41 59.71, 115.91 13.46 M16.28 129.89 C56.39 84.26, 96.78 37.5, 116.41 14.88 M16.74 134.64 C52.1 94.34, 89.38 51.82, 122.41 15.46 M17.49 134.48 C46.79 99.68, 76.24 65.37, 119.67 16.76 M19.11 138.85 C41.94 109.07, 63.84 84.91, 122.92 16.28 M20.16 137.21 C56.48 93.59, 93.57 51.68, 125.11 17.93 M24.89 140.37 C50.11 111.8, 75.48 82.24, 128.66 21.39 M23.29 138.84 C61.19 93.7, 99.78 50.33, 125.89 21.16 M25.96 143.92 C58.42 103.95, 95.27 61.48, 131.13 23.5 M26.7 143.41 C64.86 97.65, 104.93 52.32, 129.97 23.95 M27.87 144.47 C65.02 106.96, 100.41 67.46, 131.55 26.09 M30.38 144.66 C55.47 115.4, 80.39 86.18, 131.52 28.08 M33.78 147.24 C57.31 118.51, 81.31 90.84, 134.11 29.36 M32.46 146.13 C64.03 112.71, 95.2 76.6, 134.18 31.56 M37.93 150.71 C56.43 126.23, 77.64 102.4, 135.34 33.3 M36.63 150.07 C69.6 112.02, 102.37 75.47, 136.44 33.66 M37.49 154.09 C73.46 113.95, 104.96 76.05, 140.77 36.86 M40.01 153 C70.42 114.63, 103.19 76.65, 138.27 38.14 M42 156.34 C67.9 124.89, 90.8 96.22, 141.59 41.27 M42.6 154.69 C61.78 131.44, 83.37 108.41, 141.83 40.51 M46 155.44 C81.5 116.25, 119.26 71.88, 144.01 44.99 M45.88 157.4 C70.42 126.41, 98.35 97.23, 144.78 43.05 M50.32 158.85 C72.53 128.63, 98.34 100.68, 143.92 48.76 M50.15 158.39 C77.95 125.48, 107.28 90.9, 144.95 47.78 M54.19 160.04 C87.51 122.26, 122.78 79.25, 148.15 54.03 M54.57 160.44 C83.33 125.25, 114.89 89.78, 145.63 52.95 M59.13 161.98 C94.18 120.85, 129.77 78.88, 147.89 58.02 M59.13 161.3 C80.7 135.44, 101.03 111.53, 148.98 58.07 M63.67 162.65 C90.54 130.67, 116.61 98.5, 149.36 63.21 M63.32 161.24 C92.08 129.16, 123.28 95.28, 148.65 61.43 M67.36 163 C90.6 135.81, 109.95 111.5, 149.76 68.8 M66.13 163.04 C85.46 140.59, 105.13 121.32, 149.79 67.53 M70.06 163.77 C102.07 129.52, 132.19 95.28, 150.6 73.77 M71.37 164.71 C95.83 136.85, 118.59 108.24, 152.39 72.13 M74.61 166.42 C96.9 142.48, 117.52 118.64, 155.08 75.33 M74.34 166.5 C94.43 142.94, 114.34 119.65, 152.59 76.75 M80.86 163.39 C107.23 134.33, 132.33 106.23, 154.73 78.46 M81.85 165.18 C97.65 146.34, 113.49 126.79, 155.36 80.15 M86.38 161.93 C110.84 136.39, 136.56 106.38, 153.49 88.39 M86.91 163.77 C111.77 135.65, 136.09 106.83, 154.6 86.88 M95.69 162.01 C106.55 148.17, 120.74 131.35, 153.48 94.83 M94 163.53 C113.44 140.52, 132.4 117.48, 152.9 95.43 M98.32 162.59 C118.78 138.81, 138.62 117, 151.91 101.24 M101.1 162.24 C120.3 140.36, 138.68 118.87, 152.41 101.57 M104.81 161.63 C121.44 139.87, 139 123.63, 148.33 112.6 M105.71 160.16 C115.32 149.25, 124.63 138.38, 150.13 112.06 M121.91 151.82 C124.12 146.93, 128.57 138.03, 141.36 127.66 M120.02 151.76 C124.7 143.91, 131.32 139.72, 140.63 126.96" stroke="#228be6" stroke-width="0.5" fill="none"></path><path d="M93.51 1.66 C103.16 2.66, 114.29 9.5, 122.59 16.37 C130.89 23.23, 138.35 32.72, 143.31 42.85 C148.27 52.98, 151.75 66.02, 152.34 77.16 C152.92 88.3, 150.43 99.19, 146.81 109.68 C143.2 120.17, 137.72 131.97, 130.66 140.1 C123.59 148.23, 114.06 154.48, 104.42 158.47 C94.78 162.46, 82.9 164.47, 72.8 164.03 C62.7 163.59, 52.97 160.69, 43.84 155.82 C34.72 150.95, 24.78 143.17, 18.03 134.83 C11.28 126.49, 6.26 116.5, 3.35 105.77 C0.43 95.05, -0.68 81.61, 0.55 70.46 C1.77 59.32, 5.27 48.26, 10.7 38.89 C16.12 29.52, 24.61 20.4, 33.11 14.21 C41.61 8.03, 51.33 3.67, 61.69 1.79 C72.04 -0.09, 89.46 2.27, 95.25 2.92 C101.03 3.57, 96.64 4.36, 96.39 5.69 M41.43 9.33 C49.88 2.92, 61.43 0.24, 71.64 -0.69 C81.85 -1.62, 93.34 -0.05, 102.72 3.74 C112.09 7.54, 120.6 14, 127.87 22.05 C135.14 30.11, 142.29 41.65, 146.35 52.08 C150.41 62.52, 152.63 73.44, 152.22 84.67 C151.82 95.9, 148.57 109.41, 143.93 119.46 C139.3 129.51, 132.09 138.13, 124.43 144.98 C116.77 151.83, 107.62 157.19, 97.97 160.56 C88.31 163.93, 77.01 166.63, 66.48 165.2 C55.96 163.77, 43.78 157.99, 34.81 152.01 C25.84 146.02, 18.17 138.59, 12.68 129.29 C7.2 119.99, 3.74 107.24, 1.89 96.19 C0.04 85.13, -0.92 73.65, 1.59 62.96 C4.09 52.28, 10.34 41.04, 16.92 32.06 C23.51 23.07, 37.08 12.8, 41.11 9.05 C45.14 5.29, 40.84 8.34, 41.12 9.55" stroke="#000000" stroke-width="1" fill="none"></path></g><g transform="translate(58.70988539276186 390.46630285679726) rotate(0 27.049999237060547 12.5)"><text x="27.049999237060547" y="0" font-family="Virgil, Segoe UI Emoji" font-size="20px" fill="#000000" text-anchor="middle" style="white-space: pre;" direction="ltr" dominant-baseline="text-before-edge">Client</text></g><g stroke-linecap="round" transform="translate(489 314.8026123046875) rotate(0 76 82.5)"><path d="M32.46 13.64 C32.46 13.64, 32.46 13.64, 32.46 13.64 M32.46 13.64 C32.46 13.64, 32.46 13.64, 32.46 13.64 M12.13 43.35 C20.18 32.88, 27.17 26.55, 41.56 9.32 M13.07 42.11 C22.93 30.69, 31.53 20.55, 41.28 10.14 M9.31 50.73 C24.82 36.48, 36.46 20.2, 47.32 5.73 M10.33 51.73 C18.89 42.59, 26.39 32.22, 49.49 6.61 M8.02 59.89 C21.05 42.21, 35.7 25.08, 57.34 0.71 M8.01 59.25 C19.89 47.61, 28.95 36.6, 58 3.34 M1.65 73.66 C14.91 57.58, 28.92 42, 65.3 0.56 M1.78 73.94 C15.67 57.51, 30.72 41.92, 64.31 1.59 M1.65 78.49 C25.95 48.62, 50.03 20.59, 68.48 3.32 M2.89 79.21 C24.14 53.41, 44.84 29.84, 68.98 2.84 M1.43 85.45 C18.23 67.51, 32.02 48.95, 75.16 3.99 M2.06 83.58 C22.09 61.45, 41.81 38.55, 75.09 2.06 M3.96 91.09 C25.18 64.08, 45.22 42.6, 79.32 4.11 M3.04 89.56 C24.19 67.04, 43.31 45, 78.91 3.23 M3.22 96.92 C29.79 63.08, 58.66 30.49, 85.91 2.21 M4.11 95.11 C33.77 61.48, 62.39 29.57, 83.21 3.85 M4.17 101.49 C25.54 75.14, 44.06 51.25, 90.91 1.83 M4.03 101.73 C23.44 80.16, 40.77 56.78, 89.25 2.88 M3.43 107.56 C25.02 81.66, 49.47 55.42, 93.95 2.73 M4.72 105.64 C27.28 79.95, 48.62 54.52, 95.45 2.07 M8.64 110.92 C31.34 78.58, 56.4 49.55, 97.71 6.23 M6.61 110.58 C42.9 67.89, 76.91 27.08, 98.79 5.17 M7.78 115.36 C38.2 79.95, 66.86 47.47, 102.45 7.08 M7.98 114.78 C41.46 77.02, 74.34 39.89, 101.34 7.89 M10.49 118.65 C48.56 74.37, 83.04 34.23, 103.46 9.57 M10.27 116.99 C44.48 78.35, 77.97 39.09, 105.68 9.97 M12.73 120.33 C50.08 79.48, 85.89 39.93, 107.73 10.23 M12.74 122.19 C33.79 96.74, 56.02 72.02, 109.6 11.9 M14.14 124.18 C52.15 83.93, 89.47 38.81, 113.22 14.59 M13.81 126.1 C44.69 90.27, 74.57 57, 113.34 13.66 M15.35 129.23 C38.3 103.38, 60.71 78.35, 116.9 13.17 M16.43 130.22 C45.96 98.35, 73.24 64.88, 115.69 14.73 M18.01 133.27 C45.18 100.41, 75.29 67.8, 118.75 17.53 M18.02 133.27 C39.24 108.41, 61.38 82.74, 119.91 16.1 M18.74 139.06 C48.9 105.93, 77.86 74.4, 121.06 20.93 M20.51 137.5 C50.41 101.77, 80.28 65.53, 123.1 19.01 M24.49 139.14 C56.53 103.74, 85.44 66.07, 126.47 20.15 M23.67 139.38 C53.37 104.7, 83.91 71.25, 126.18 22.68 M24.6 143.79 C60.09 100.74, 96.6 59.51, 127.29 26.49 M27.1 141.65 C53.67 109.42, 81.35 79.1, 127.28 25.36 M28.02 143.55 C56.34 114.49, 79.89 87.09, 132.79 29.96 M29.56 145.8 C60.08 110.86, 90.17 76.39, 130.95 28.52 M30.72 145.95 C60.26 117.31, 87.04 84.19, 132.65 32.6 M32.33 146.81 C71.05 102.62, 107.72 59.93, 133.67 32.16 M35.68 151.52 C69.62 110.47, 101.44 71.59, 137.48 35.2 M35.16 151.16 C60.35 120.72, 86.12 93.17, 136.34 35.5 M36.86 153.79 C60.59 126.79, 82.04 98.68, 140.9 35.52 M38.33 152.85 C59.18 127.28, 80.35 103.88, 138.4 37.27 M43.23 155.29 C77.58 113.29, 116.62 70.7, 141.58 42.6 M42.6 155.34 C73.07 118.23, 103.85 83.42, 141.79 39.98 M42.76 159.55 C69.99 132.17, 91.48 100.83, 143.13 44.24 M45.24 157.64 C78.95 117.67, 114.99 77.48, 142.94 43.34 M47.72 157.6 C87.86 119.36, 121.25 76.61, 146.88 46.7 M49.32 158.71 C77.56 127.42, 104.49 96.74, 145.45 48.09 M54.79 160.47 C82.63 123, 117.17 88.61, 145.78 52.52 M53.8 160.04 C73.12 137.87, 92.64 115.89, 146.09 53.73 M56.92 162.7 C89.27 125.18, 121.59 88.13, 149.13 55.73 M57.44 161.13 C89.64 125.46, 121.92 87.49, 147.45 57.73 M62.08 163.82 C87.15 131.54, 115.16 101.36, 150.57 62.35 M61.5 162.96 C92.55 128.56, 121.69 95.62, 149.96 62.07 M65.25 164.35 C92.88 131.69, 122.94 99.67, 148.73 65.18 M65.77 164 C91.14 133.86, 116.97 105.06, 150.57 68 M71.74 166.59 C102.31 128.16, 131.82 94.9, 153.24 69.99 M69.83 165 C100.17 131.19, 128.63 98.31, 152.67 70.23 M75.82 167.56 C97.86 139.99, 122.27 110.23, 154.76 77.81 M73.78 165.94 C100.68 137.37, 125.7 108.14, 152.24 75.27 M78.77 165.28 C106.36 134.15, 136.56 105.88, 154.21 78.92 M80.18 166.29 C95.97 144.96, 113.86 126.67, 155 79.33 M86.26 161.78 C108.17 142.85, 126.09 118.28, 152.98 88.13 M87.5 164.04 C113.54 132.58, 140.3 101.17, 154.63 85.68 M94.94 164.12 C110.68 146.45, 125.99 129.84, 154.66 92.95 M94.68 162.68 C115.96 137.34, 136.25 115.31, 152.51 94.78 M98.44 162.06 C115.57 141.53, 131.45 123.55, 152.53 103.4 M101.15 160.96 C116.16 143.26, 134.42 122.6, 151.23 102.12 M104.72 159.14 C117.34 147, 129.97 130.54, 150.28 111.79 M106.18 159.84 C118.93 146.17, 133.47 131.26, 149.26 111.95 M120.63 150.83 C127.86 141.09, 136.08 134.13, 139.25 126.66 M121.39 150.76 C126.33 143.76, 130.05 139.09, 140.26 127.27" stroke="#fab005" stroke-width="0.5" fill="none"></path><path d="M63.06 0.58 C72.54 -2.52, 84.56 0.28, 94.27 3.09 C103.99 5.9, 113.24 10.84, 121.35 17.46 C129.46 24.08, 137.73 32.91, 142.94 42.8 C148.14 52.69, 151.84 65.52, 152.55 76.79 C153.27 88.05, 150.69 100.04, 147.23 110.4 C143.76 120.76, 138.86 130.83, 131.74 138.93 C124.62 147.03, 114.28 154.58, 104.52 158.99 C94.75 163.4, 83.31 165.61, 73.15 165.39 C62.99 165.18, 52.57 162.53, 43.57 157.71 C34.58 152.9, 25.8 145.28, 19.19 136.51 C12.58 127.73, 6.87 115.68, 3.91 105.05 C0.95 94.42, 0.28 83.55, 1.42 72.73 C2.57 61.9, 5.63 49.91, 10.75 40.12 C15.87 30.33, 22.64 20.46, 32.15 13.99 C41.65 7.53, 60.49 3.51, 67.77 1.34 C75.04 -0.83, 75.45 -0.11, 75.8 0.97 M98.13 4.03 C108.04 5.78, 118 12.84, 125.56 19.79 C133.11 26.74, 138.84 35.77, 143.45 45.73 C148.05 55.7, 152.6 68.16, 153.17 79.57 C153.75 90.98, 150.96 103.85, 146.9 114.18 C142.84 124.51, 136.14 133.94, 128.82 141.57 C121.49 149.2, 112.81 155.95, 102.96 159.93 C93.11 163.92, 80.21 166.13, 69.72 165.47 C59.22 164.81, 48.9 161.22, 40 155.95 C31.1 150.68, 22.84 142.66, 16.32 133.85 C9.8 125.04, 3.47 114, 0.9 103.08 C-1.67 92.16, -1.13 79.32, 0.9 68.33 C2.92 57.34, 7.26 46.38, 13.04 37.14 C18.82 27.9, 26.81 19.11, 35.56 12.9 C44.32 6.68, 55.38 1.59, 65.56 -0.16 C75.74 -1.9, 91.32 1.64, 96.65 2.41 C101.98 3.17, 98.11 2.79, 97.53 4.42" stroke="#000000" stroke-width="1" fill="none"></path></g><g transform="translate(521.6298873764044 384.96630285679737) rotate(0 43.12999725341797 12.5)"><text x="43.12999725341797" y="0" font-family="Virgil, Segoe UI Emoji" font-size="20px" fill="#000000" text-anchor="middle" style="white-space: pre;" direction="ltr" dominant-baseline="text-before-edge">Gateway</text></g><g stroke-linecap="round" transform="translate(790 25.8026123046875) rotate(0 76 82.5)"><path d="M20.15 26.79 C20.15 26.79, 20.15 26.79, 20.15 26.79 M20.15 26.79 C20.15 26.79, 20.15 26.79, 20.15 26.79 M10.75 46.51 C15.54 34.64, 23.03 25.83, 36.85 14.27 M8.73 46.17 C20.92 32.25, 30.22 19.87, 37.93 13.21 M3.99 57.74 C18.22 40.86, 30.87 26.81, 48.14 7.58 M4.2 57.17 C19.84 39.61, 35.35 22.47, 47.03 8.39 M4.08 64.05 C24.41 40, 41.56 19.8, 52.44 6.29 M3.86 62.39 C21.82 42.35, 39.46 21.33, 54.66 6.7 M3.7 68.75 C26.27 44.65, 47.52 21.86, 59.33 3.93 M3.7 70.61 C16.19 55.43, 29.59 40.88, 61.2 5.6 M1.82 76.37 C26.72 50.73, 51.05 20.54, 67.45 5.27 M1.49 78.29 C22.19 54.27, 42.03 32.54, 67.57 4.34 M1.07 83.69 C17.84 65.22, 34.07 47.3, 74.41 0.08 M2.14 84.67 C23.46 61.83, 42.82 37.46, 73.2 1.64 M1.76 89.99 C22.08 65.13, 45.15 40.61, 78.22 2.17 M1.77 89.99 C17.84 71.15, 34.78 51.47, 79.38 0.74 M1.17 97.29 C25.11 70.88, 48.07 46.26, 81.84 4.06 M2.95 95.73 C26.54 67.59, 49.92 38.81, 83.88 2.14 M5.62 98.88 C31.87 70.29, 54.93 39.34, 88.56 1.78 M4.79 99.12 C28.86 70.86, 53.97 43.66, 88.28 4.31 M3.75 105.8 C33.98 69.05, 65.11 34.01, 91.35 5.85 M6.25 103.66 C28.72 76.22, 52.34 50.57, 91.34 4.72 M5.21 107.82 C30.74 81.98, 51.49 57.8, 98.83 7.06 M6.75 110.07 C33.95 78.88, 60.69 48.26, 96.99 5.62 M6.6 111.73 C34.05 85.53, 58.72 54.85, 100.65 7.44 M8.2 112.59 C43.98 71.83, 77.68 32.55, 101.67 6.99 M9.59 119.56 C42.22 80.03, 72.72 42.67, 107.45 7.77 M9.07 119.2 C33.29 89.89, 58.07 63.47, 106.31 8.07 M8.14 124.85 C31.73 98.03, 53.03 70.09, 111.53 7.33 M9.62 123.91 C30.33 98.51, 51.36 75.26, 109.03 9.09 M14.51 126.35 C48.86 84.35, 87.9 41.76, 112.86 13.66 M13.89 126.4 C44.35 89.29, 75.14 54.48, 113.07 11.04 M13.38 131.37 C40.94 103.63, 62.75 71.91, 115.07 14.54 M15.87 129.45 C50.04 88.95, 86.56 48.22, 114.88 13.64 M16.38 131.68 C58.29 91.45, 93.41 46.72, 120.13 15.49 M17.98 132.79 C47.56 100.01, 75.81 67.81, 118.7 16.89 M22.14 136.06 C52.79 95.31, 90.19 57.62, 121.66 18.3 M21.14 135.63 C42.23 111.44, 63.5 87.46, 121.97 19.51 M22.3 140.55 C58.94 98.15, 95.46 56.28, 126.32 19.99 M22.81 138.99 C59.25 98.57, 95.74 55.77, 124.64 22 M25.49 143.93 C55.35 106.01, 88.22 70.22, 129.73 24.36 M24.91 143.07 C61.43 102.67, 95.91 63.57, 129.12 24.08 M26.69 146.73 C60.89 106.7, 97.35 67.32, 129.86 24.92 M27.21 146.38 C58.39 109.39, 90.23 73.69, 131.69 27.74 M31.86 150.48 C70.89 102.11, 108.84 59.13, 135.68 28.22 M29.96 148.89 C68.37 105.96, 104.64 64.09, 135.11 28.46 M35.94 151.45 C64.6 115.84, 95.84 78.23, 137.85 35.29 M33.91 149.83 C68.48 112.55, 100.94 74.76, 135.33 32.74 M36.28 152.19 C73.26 110.57, 112.59 71.8, 137.3 36.4 M37.69 153.2 C58.95 125.14, 82.57 100.25, 138.09 36.8 M40.49 152.46 C71.39 122.93, 98.27 88.05, 138.7 42.59 M41.72 154.72 C80.12 108.78, 119.46 62.89, 140.34 40.14 M46.55 157.82 C72.18 129.21, 97.26 101.37, 144.31 42.88 M46.28 156.39 C81.22 115.49, 114.77 78.2, 142.16 44.71 M47.42 158.78 C77.32 123.1, 106.16 90.21, 144.81 50.31 M50.13 157.68 C79.19 124.21, 111.29 87.64, 143.5 49.03 M51.73 158.12 C79.25 129.6, 106.53 96.29, 147.8 52.66 M53.19 158.83 C81.76 127.49, 112.02 94.49, 146.79 52.82 M57.14 161.89 C89.83 122.95, 123.62 86.58, 147.93 54.71 M57.9 161.82 C82.4 132.74, 105.71 105.52, 148.94 55.31 M62.27 162.86 C85.56 133.38, 110.17 106.16, 149.49 59.74 M61.21 161.9 C89.32 132.32, 114.66 101.77, 150.07 58.74 M65.41 162.04 C85.56 136.56, 110.1 110.97, 150.5 65.54 M65.17 163.03 C86.27 140.26, 107.58 116.4, 151.47 64.35 M69.2 164.5 C88.09 145.43, 104.8 124.27, 151.88 70.39 M71.75 163.71 C95 134.67, 119.83 107.25, 150.87 70.38 M76.62 162.74 C94.42 144.57, 110.82 121.82, 151.61 75.81 M76.72 164.43 C91.98 144.1, 108.64 125.22, 152.55 76.79 M81.64 166.31 C102.04 139.1, 127.86 110.96, 150.66 80.34 M80.33 165.16 C103.21 138.64, 124.74 114.15, 153.26 81.09 M85.22 165.74 C106.81 141.15, 124.4 121.07, 152.99 87.51 M85.35 165.39 C111.44 133.7, 138.03 104.19, 152.28 88.24 M91.34 164.55 C104.32 151.49, 115.11 136.89, 152.26 95.36 M91.05 164.1 C108.52 143.51, 126.78 123.1, 152.06 94.25 M99.55 162.01 C110.38 148.25, 123.45 135.95, 149.78 106.17 M99.78 160.51 C116.83 141.09, 133.6 122.56, 148.2 103.85 M110.58 157.66 C119.2 144.9, 130.39 129.24, 143.84 112.97 M108.57 156.62 C118.5 145.41, 127.94 134.32, 144.78 115.02 M118.05 153.3 C124.63 145.68, 132.17 139.65, 142.4 127.28 M118.84 151.18 C124.68 144.36, 131.6 138.01, 141.08 124.74" stroke="#fd7e14" stroke-width="0.5" fill="none"></path><path d="M108.09 7.36 C117.31 10.66, 126.07 19.96, 132.81 28.43 C139.56 36.89, 145.48 47.23, 148.57 58.16 C151.65 69.1, 152.63 82.84, 151.32 94.03 C150.01 105.22, 145.91 115.96, 140.72 125.29 C135.52 134.62, 128.52 143.55, 120.14 150.02 C111.76 156.48, 100.58 162.1, 90.42 164.08 C80.27 166.05, 69.27 164.42, 59.2 161.86 C49.13 159.29, 38.31 155.2, 30 148.68 C21.69 142.16, 14.37 132.74, 9.34 122.76 C4.32 112.77, 0.8 100.05, -0.14 88.77 C-1.08 77.48, 0.3 65.41, 3.7 55.07 C7.09 44.72, 13.14 34.81, 20.22 26.71 C27.3 18.6, 36.52 10.92, 46.17 6.43 C55.81 1.93, 66.43 -1.26, 78.11 -0.24 C89.79 0.78, 108.93 9.56, 116.22 12.56 C123.51 15.56, 122.63 16.59, 121.84 17.77 M51.04 5.72 C59.9 1.34, 72.18 0.47, 82.33 1.24 C92.47 2, 102.66 5.18, 111.91 10.32 C121.16 15.46, 131.31 23.35, 137.81 32.09 C144.32 40.83, 148.78 51.55, 150.94 62.75 C153.1 73.96, 153.13 87.86, 150.76 99.3 C148.38 110.74, 142.79 122.21, 136.69 131.41 C130.58 140.61, 122.73 148.95, 114.14 154.5 C105.55 160.04, 95.23 163.35, 85.14 164.65 C75.05 165.95, 63.71 165.82, 53.61 162.32 C43.5 158.83, 32.46 150.98, 24.5 143.67 C16.53 136.36, 10.1 128.64, 5.84 118.45 C1.57 108.26, -1.23 93.93, -1.09 82.53 C-0.95 71.13, 2.4 60.07, 6.68 50.06 C10.97 40.05, 16.92 29.9, 24.61 22.47 C32.29 15.04, 48.45 8.41, 52.79 5.48 C57.13 2.55, 50.44 3.87, 50.66 4.89" stroke="#000000" stroke-width="1" fill="none"></path></g><g transform="translate(830.5998847824103 83.46630285679731) rotate(0 35.15999984741211 25)"><text x="35.15999984741211" y="0" font-family="Virgil, Segoe UI Emoji" font-size="20px" fill="#000000" text-anchor="middle" style="white-space: pre;" direction="ltr" dominant-baseline="text-before-edge">Status</text><text x="35.15999984741211" y="25" font-family="Virgil, Segoe UI Emoji" font-size="20px" fill="#000000" text-anchor="middle" style="white-space: pre;" direction="ltr" dominant-baseline="text-before-edge">Service</text></g><g stroke-linecap="round" transform="translate(1083 10) rotate(0 125 51.5)"><path d="M6.2 6.71 C6.2 6.71, 6.2 6.71, 6.2 6.71 M6.2 6.71 C6.2 6.71, 6.2 6.71, 6.2 6.71 M6.59 12.36 C10.3 8.79, 10.69 5.44, 15.12 2.54 M6.59 12.36 C9.39 10.14, 11.9 6.61, 15.12 2.54 M3.05 22.53 C10.03 14.78, 15.69 9.91, 21.42 1.4 M3.05 22.53 C8.26 17.76, 12.49 12.43, 21.42 1.4 M3.45 28.17 C11.62 20.17, 21.17 11.12, 27.06 1 M3.45 28.17 C9.28 20.63, 16.7 13.18, 27.06 1 M3.18 34.57 C11.23 24.24, 20.86 13.67, 32.05 1.36 M3.18 34.57 C14.36 22.45, 24.99 11.23, 32.05 1.36 M3.58 40.21 C9.94 30.93, 18.54 22.57, 37.69 0.97 M3.58 40.21 C13.95 26.99, 25.09 13.99, 37.69 0.97 M3.32 46.61 C16.02 32.51, 25.12 18.6, 42.68 1.33 M3.32 46.61 C14.21 33.32, 25.64 19.61, 42.68 1.33 M3.06 53.01 C16.24 37.32, 29.67 20.8, 48.32 0.93 M3.06 53.01 C16.92 36.7, 31.54 19.69, 48.32 0.93 M3.45 58.65 C17.2 39.66, 32.43 25.74, 53.31 1.29 M3.45 58.65 C16.44 43.68, 28.69 30.42, 53.31 1.29 M3.19 65.05 C24.63 41.09, 45.93 15.3, 58.95 0.9 M3.19 65.05 C17.64 48.78, 32.6 32.3, 58.95 0.9 M3.58 70.69 C18.61 50.84, 36.18 31.07, 63.94 1.26 M3.58 70.69 C21.59 49.96, 38.19 30.03, 63.94 1.26 M3.32 77.09 C30.24 48.91, 55.38 20.3, 69.58 0.86 M3.32 77.09 C16.57 61.54, 30.14 46.55, 69.58 0.86 M1.75 85 C29.46 56.37, 52.47 24.39, 74.57 1.22 M1.75 85 C18.36 64.59, 36.21 44.81, 74.57 1.22 M3.46 89.13 C27.65 63.05, 47.75 39.62, 80.21 0.83 M3.46 89.13 C31.71 54.94, 60.25 23.58, 80.21 0.83 M4.51 94.02 C32.1 63.52, 57.76 33.51, 85.2 1.19 M4.51 94.02 C31.43 63.37, 60.46 31.27, 85.2 1.19 M6.87 97.4 C30.55 72.51, 50.96 46.49, 90.84 0.79 M6.87 97.4 C24 77.05, 43.42 56.28, 90.84 0.79 M10.54 99.27 C38.9 67.72, 68.19 32.35, 95.83 1.15 M10.54 99.27 C31.66 74.74, 51.8 52.07, 95.83 1.15 M14.22 101.14 C34.04 77.31, 58.32 51, 101.47 0.76 M14.22 101.14 C48.41 62.22, 80.81 25.27, 101.47 0.76 M17.24 103.76 C51.86 65.66, 79.94 31.69, 106.46 1.12 M17.24 103.76 C49.47 66.17, 81.62 30.14, 106.46 1.12 M22.22 104.12 C45.09 79.91, 66.64 54.11, 112.1 0.72 M22.22 104.12 C46.98 75.26, 71.87 46.95, 112.1 0.72 M27.21 104.48 C57.58 69.08, 87.27 32.27, 117.09 1.09 M27.21 104.48 C57.43 69.88, 88.48 32.5, 117.09 1.09 M32.85 104.09 C63.91 63.43, 98.02 26.94, 122.08 1.45 M32.85 104.09 C65.16 66.96, 95.49 31.04, 122.08 1.45 M37.84 104.45 C59.37 79.11, 82.97 50.1, 127.72 1.05 M37.84 104.45 C60.76 78.77, 81.38 55.75, 127.72 1.05 M43.48 104.05 C62.27 82.25, 82.14 59.67, 132.71 1.41 M43.48 104.05 C67.23 76.3, 90.9 50.26, 132.71 1.41 M48.47 104.41 C71.77 73.62, 100.43 45.99, 138.35 1.02 M48.47 104.41 C72.27 78.2, 96.69 50.42, 138.35 1.02 M54.11 104.02 C84.51 66.82, 117.4 33.21, 143.34 1.38 M54.11 104.02 C74.16 80.74, 94.06 57.89, 143.34 1.38 M59.1 104.38 C91.78 67.67, 121.26 30.88, 148.98 0.98 M59.1 104.38 C83.44 75.61, 107.29 48.75, 148.98 0.98 M64.09 104.74 C91.5 73.73, 117.82 40.81, 153.97 1.34 M64.09 104.74 C88.88 75.43, 113.43 45.04, 153.97 1.34 M69.73 104.34 C90.41 77.82, 115.13 53.88, 159.61 0.95 M69.73 104.34 C95.58 74.57, 121.88 44.42, 159.61 0.95 M74.72 104.7 C97.05 75.09, 123.29 50.4, 164.6 1.31 M74.72 104.7 C99.86 75.59, 124.62 48.02, 164.6 1.31 M80.36 104.31 C108.61 71.95, 139.58 37.41, 170.24 0.91 M80.36 104.31 C114.14 67.64, 145.25 30.11, 170.24 0.91 M85.35 104.67 C101.71 85.06, 119.22 63.74, 175.23 1.27 M85.35 104.67 C105.82 81.98, 127.88 57.55, 175.23 1.27 M90.99 104.27 C123.46 66.23, 154.34 34.16, 180.87 0.88 M90.99 104.27 C120.46 69.45, 150.16 37.27, 180.87 0.88 M95.98 104.63 C116.47 80.22, 139.18 52.63, 185.86 1.24 M95.98 104.63 C114.3 84.95, 134.08 62.11, 185.86 1.24 M101.62 104.24 C127.96 74.3, 153.02 45.68, 191.5 0.84 M101.62 104.24 C119.87 81.96, 139.29 59.98, 191.5 0.84 M106.61 104.6 C144.38 66.24, 178.88 22.6, 196.49 1.2 M106.61 104.6 C126.53 80.66, 145.86 57.98, 196.49 1.2 M112.25 104.2 C135 76.77, 159.14 47.76, 202.13 0.81 M112.25 104.2 C137.84 76.85, 161.48 49.36, 202.13 0.81 M117.24 104.56 C152.31 63.26, 187.83 26.35, 207.12 1.17 M117.24 104.56 C145.98 72.68, 174.02 38.84, 207.12 1.17 M122.88 104.17 C147.64 73.49, 176.39 40.13, 212.76 0.77 M122.88 104.17 C153.66 70.77, 181.39 36.85, 212.76 0.77 M127.87 104.53 C165.45 66.07, 197.82 21.87, 217.75 1.13 M127.87 104.53 C158.04 68.44, 189.38 32.94, 217.75 1.13 M133.51 104.14 C164.94 71.52, 192.44 37.74, 223.39 0.74 M133.51 104.14 C152.73 82.56, 173.83 60.1, 223.39 0.74 M138.5 104.5 C172.14 64.9, 205.34 27.85, 227.07 2.61 M138.5 104.5 C167.59 70.41, 195.76 37.34, 227.07 2.61 M144.14 104.1 C173.21 73.65, 197.65 39.93, 232.05 2.97 M144.14 104.1 C177.63 65.87, 211.92 26.42, 232.05 2.97 M149.13 104.46 C176.37 73.75, 199.89 45.12, 237.04 3.33 M149.13 104.46 C176.72 73.5, 203.3 44.32, 237.04 3.33 M154.77 104.07 C170.51 83.52, 191.68 65.09, 240.72 5.2 M154.77 104.07 C179.03 77.54, 203 49.41, 240.72 5.2 M159.76 104.43 C185.68 71.71, 214.22 41.58, 244.39 7.07 M159.76 104.43 C185.68 73.65, 210.48 45.19, 244.39 7.07 M165.4 104.03 C199.02 69.09, 230.62 30.8, 246.75 10.45 M165.4 104.03 C190.5 74.41, 218.22 44.65, 246.75 10.45 M170.39 104.39 C186.4 84.85, 202.65 66.31, 248.46 14.58 M170.39 104.39 C200.67 70.04, 231.84 34.51, 248.46 14.58 M176.03 104 C190.54 85.97, 209.53 69.3, 249.51 19.47 M176.03 104 C201.29 75.12, 228.15 45.7, 249.51 19.47 M181.02 104.36 C204.7 80.9, 224.96 53.02, 252.53 22.09 M181.02 104.36 C207.76 74.07, 235.37 43.53, 252.53 22.09 M186.01 104.72 C201.02 86.26, 218.49 67.66, 252.27 28.49 M186.01 104.72 C199.58 89.18, 213.6 74.82, 252.27 28.49 M191.65 104.32 C205.09 88.84, 219.93 73.46, 252.66 34.13 M191.65 104.32 C210.07 81.51, 229.24 60.53, 252.66 34.13 M196.64 104.68 C210.13 89.23, 225.57 71.67, 252.4 40.53 M196.64 104.68 C215.09 84.56, 232.6 63.44, 252.4 40.53 M202.28 104.29 C213.76 87.98, 227.54 73.28, 252.8 46.18 M202.28 104.29 C212.83 90.55, 225.8 77.81, 252.8 46.18 M207.27 104.65 C226.31 85.12, 244.22 65.22, 252.53 52.57 M207.27 104.65 C222.6 87.36, 238.32 68.82, 252.53 52.57 M212.91 104.25 C221 93.86, 231.81 84.42, 252.93 58.22 M212.91 104.25 C227.97 87.37, 241 70.02, 252.93 58.22 M217.9 104.61 C225.67 93.95, 235.18 86.61, 252.67 64.61 M217.9 104.61 C227.98 92.89, 239.01 79.2, 252.67 64.61 M224.2 103.46 C232.2 95.09, 241.48 87.05, 253.06 70.26 M224.2 103.46 C233.95 91.14, 245.41 78.92, 253.06 70.26 M231.15 101.56 C238.56 93.83, 242.83 88.6, 251.49 78.16 M231.15 101.56 C236.59 94.99, 241.87 90.34, 251.49 78.16 M237.45 100.41 C243.77 96.36, 248.32 91.21, 250.57 85.32 M237.45 100.41 C240 95.59, 244.63 93.18, 250.57 85.32" stroke="#fa5252" stroke-width="0.5" fill="none"></path><path d="M25.75 0 M25.75 0 C71.47 2.1, 116.73 0.08, 224.25 0 M25.75 0 C66.42 -0.59, 106.84 -1.6, 224.25 0 M224.25 0 C240.04 -0.81, 249.08 9.34, 250 25.75 M224.25 0 C241.95 2.11, 248.98 8.13, 250 25.75 M250 25.75 C250.36 43.33, 251.11 58.94, 250 77.25 M250 25.75 C249.87 45.06, 250.45 64.17, 250 77.25 M250 77.25 C251.34 93.5, 241.32 101.02, 224.25 103 M250 77.25 C247.89 92.36, 240.82 105.07, 224.25 103 M224.25 103 C161.57 102.82, 100.82 105.78, 25.75 103 M224.25 103 C181.92 104, 139.39 103.89, 25.75 103 M25.75 103 C7.72 104.72, -0.61 94.37, 0 77.25 M25.75 103 C7.58 103.18, 0.81 96.11, 0 77.25 M0 77.25 C-0.41 62.06, 1.2 48.36, 0 25.75 M0 77.25 C0.92 66.6, 0.94 56.9, 0 25.75 M0 25.75 C-1.46 9.67, 7.66 1.51, 25.75 0 M0 25.75 C-0.12 8.15, 6.65 -0.48, 25.75 0" stroke="#000000" stroke-width="1" fill="none"></path></g><g transform="translate(1132.25 49) rotate(0 75.75 12.5)"><text x="75.75" y="0" font-family="Virgil, Segoe UI Emoji" font-size="20px" fill="#000000" text-anchor="middle" style="white-space: pre;" direction="ltr" dominant-baseline="text-before-edge">Some database</text></g><g stroke-linecap="round"><g transform="translate(942.9329627454688 104.81908134759158) rotate(0 68.54856280753677 -11.27498017405631)"><path d="M0.63 -0.37 C23.41 -4, 115.04 -18.39, 137.59 -22.18 M-0.49 -1.61 C22.1 -5, 113.79 -17.21, 136.91 -20.66" stroke="#000000" stroke-width="1" fill="none"></path></g><g transform="translate(942.9329627454688 104.81908134759158) rotate(0 68.54856280753677 -11.27498017405631)"><path d="M109.81 -5.71 C120.37 -13.9, 128.75 -16.36, 137.9 -20.13 M111.2 -6.31 C117.48 -10.66, 123.37 -13.38, 135.95 -21.49" stroke="#000000" stroke-width="1" fill="none"></path></g><g transform="translate(942.9329627454688 104.81908134759158) rotate(0 68.54856280753677 -11.27498017405631)"><path d="M106.96 -26.04 C118.52 -26.6, 127.98 -21.42, 137.9 -20.13 M108.35 -26.63 C115.26 -25.76, 121.89 -23.24, 135.95 -21.49" stroke="#000000" stroke-width="1" fill="none"></path></g></g><mask></mask><g mask="url(#mask-7g1qng6-vYBmd3DT-UZHn)" stroke-linecap="round"><g transform="translate(486.1736469922711 376.7875859232484) rotate(0 -159.75143429170828 0.4301055215236147)"><path d="M0.06 -0.76 C-52.98 -0.43, -265.84 1.46, -319.07 1.62 M-1.37 1.46 C-54.42 1.5, -266.49 0.04, -319.56 0.01" stroke="#000000" stroke-width="1" fill="none"></path></g><g transform="translate(486.1736469922711 376.7875859232484) rotate(0 -159.75143429170828 0.4301055215236147)"><path d="M-292.59 -8.69 C-296.23 -6.77, -305.09 -7.32, -317.74 1.15 M-291.72 -9.43 C-297.61 -7.15, -304.83 -4.71, -320.23 -0.61" stroke="#000000" stroke-width="1" fill="none"></path></g><g transform="translate(486.1736469922711 376.7875859232484) rotate(0 -159.75143429170828 0.4301055215236147)"><path d="M-292.67 11.84 C-296.23 9.02, -305.07 3.75, -317.74 1.15 M-291.8 11.09 C-297.61 8.83, -304.82 6.73, -320.23 -0.61" stroke="#000000" stroke-width="1" fill="none"></path></g></g><mask id="mask-7g1qng6-vYBmd3DT-UZHn"><rect x="0" y="0" fill="#fff" width="906.1147301590194" height="477.42402949498216"></rect><rect x="247.64310785030318" y="352.10580770911537" fill="#000" width="157.1199951171875" height="50" opacity="1"></rect></mask><g transform="translate(247.64310785030318 352.1058077091153) rotate(0 78.77910485025961 25.111883735656704)"><text x="78.55999755859375" y="0" font-family="Virgil, Segoe UI Emoji" font-size="20px" fill="#000000" text-anchor="middle" style="white-space: pre;" direction="ltr" dominant-baseline="text-before-edge">1. Periodical ping</text><text x="78.55999755859375" y="25" font-family="Virgil, Segoe UI Emoji" font-size="20px" fill="#000000" text-anchor="middle" style="white-space: pre;" direction="ltr" dominant-baseline="text-before-edge">over gRPC</text></g><g mask="url(#mask-nmSi-dq9bhxI74-PXoC74)" stroke-linecap="round"><g transform="translate(150.47068969860334 452.3908374533816) rotate(0 175.03366883216404 0.5253762000864413)"><path d="M0.93 0.35 C59.2 0.56, 291.96 0.41, 350.11 0.54 M-0.05 -0.51 C58.03 -0.12, 291.03 1.09, 349.2 1.56" stroke="#000000" stroke-width="1" fill="none"></path></g><g transform="translate(150.47068969860334 452.3908374533816) rotate(0 175.03366883216404 0.5253762000864413)"><path d="M321.53 11.76 C328.97 7.68, 339.65 2.98, 349.31 3.01 M320.97 10.91 C332.4 8.5, 343.34 4.11, 349.04 0.63" stroke="#000000" stroke-width="1" fill="none"></path></g><g transform="translate(150.47068969860334 452.3908374533816) rotate(0 175.03366883216404 0.5253762000864413)"><path d="M321.66 -8.76 C328.93 -5.85, 339.57 -3.58, 349.31 3.01 M321.11 -9.61 C332.58 -4.01, 343.46 -0.39, 349.04 0.63" stroke="#000000" stroke-width="1" fill="none"></path></g></g><mask id="mask-nmSi-dq9bhxI74-PXoC74"><rect x="0" y="0" fill="#fff" width="600.510637061471" height="553.9284814402047"></rect><rect x="211.08066734732233" y="440.6596594467931" fill="#000" width="228.8199920654297" height="25" opacity="1"></rect></mask><g transform="translate(211.08066734732233 440.65965944679317) rotate(0 114.42369118344504 12.256554206674878)"><text x="114.40999603271484" y="0" font-family="Virgil, Segoe UI Emoji" font-size="20px" fill="#000000" text-anchor="middle" style="white-space: pre;" direction="ltr" dominant-baseline="text-before-edge">2. Reply with a status</text></g><g mask="url(#mask-GLzQG8L2_kqMzIUZayHi6)" stroke-linecap="round"><g transform="translate(636.2540143323275 350.6555881872119) rotate(0 79.13838040801505 -93.06920468987614)"><path d="M-0.6 0.13 C26.04 -30.49, 132.39 -153.56, 158.87 -184.49 M1.29 -0.85 C27.8 -31.75, 131.1 -155.69, 157.66 -186.27" stroke="#000000" stroke-width="1" fill="none"></path></g><g transform="translate(636.2540143323275 350.6555881872119) rotate(0 79.13838040801505 -93.06920468987614)"><path d="M147.45 -158.99 C150.82 -166.11, 151.53 -170.02, 158.22 -186.75 M148.06 -157.9 C150.67 -167.25, 153.48 -175.96, 157.93 -187.2" stroke="#000000" stroke-width="1" fill="none"></path></g><g transform="translate(636.2540143323275 350.6555881872119) rotate(0 79.13838040801505 -93.06920468987614)"><path d="M131.81 -172.26 C138.56 -176.36, 142.75 -177.32, 158.22 -186.75 M132.42 -171.18 C140.19 -176.1, 148.07 -180.5, 157.93 -187.2" stroke="#000000" stroke-width="1" fill="none"></path></g></g><mask id="mask-GLzQG8L2_kqMzIUZayHi6"><rect x="0" y="0" fill="#fff" width="895.6393997974055" height="635.7929997615829"></rect><rect x="632.5167067596909" y="245.58688240002635" fill="#000" width="166.86000061035156" height="25" opacity="1"></rect></mask><g transform="translate(632.5167067596908 245.5868824000264) rotate(0 82.87568798065178 11.999501097309391)"><text x="83.43000030517578" y="0" font-family="Virgil, Segoe UI Emoji" font-size="20px" fill="#000000" text-anchor="middle" style="white-space: pre;" direction="ltr" dominant-baseline="text-before-edge">3. Notify status</text></g><g stroke-linecap="round" transform="translate(947 193.078857421875) rotate(0 76 82.5)"><path d="M13.1 36.57 C13.1 36.57, 13.1 36.57, 13.1 36.57 M13.1 36.57 C13.1 36.57, 13.1 36.57, 13.1 36.57 M8.23 47.75 C16.52 38.58, 20.14 33.76, 35.86 16.46 M9.94 47.41 C18.04 36.71, 25.09 28.28, 35.72 16.19 M5.19 56.85 C13.71 47.41, 22.18 34.14, 43.11 12.34 M5.23 57.26 C14.08 48.7, 22.59 37.84, 44.42 12.15 M1.91 67.01 C23.64 45.1, 42.48 22.31, 54.57 9.24 M1.81 69.28 C18.07 48.84, 36.08 27.4, 53.94 8.41 M5.49 70.66 C25.45 49.03, 46.15 24.26, 65.07 0.64 M2.74 71.17 C21.92 49.02, 41.97 27.04, 63.56 1.22 M4.92 76.58 C26.34 51.83, 51.49 23.68, 69.27 1.55 M3.46 78.53 C29.02 47.65, 54.61 18.07, 68.91 1.91 M4.71 84.47 C19.36 64.79, 38.75 46.46, 72.62 2.15 M3.44 83.34 C23.67 58.65, 44.47 34.66, 74.87 2.45 M3.73 88.05 C27.98 62.78, 50.7 36.48, 79.62 2.41 M5 89.14 C21.14 70.87, 38.42 50.4, 79.92 2.11 M3.83 93.79 C26.87 66.04, 51.49 39.76, 83.83 1.3 M3.93 95.67 C36.32 59.63, 65.83 25.42, 84.05 2.65 M5.88 101.41 C27.5 78.11, 46.55 53.45, 87.77 4.79 M5.57 101.45 C26.32 75.55, 49.51 48.79, 88.75 4.34 M4.4 104.87 C36.76 71.76, 66.8 39.69, 94.98 5.84 M5.39 106.76 C41.28 65.83, 75.18 25.65, 94.99 3.93 M8.26 111.64 C37.78 77.72, 68.03 43.94, 96.66 5.93 M7.71 110.85 C38.26 76.78, 67.13 40.68, 97.96 6.22 M9.31 114.44 C37.8 81.55, 69.48 46.39, 103.67 6.53 M8.33 113.73 C40.18 80.73, 69.33 46.07, 100.94 7.45 M11.78 117.74 C43.74 78.08, 78.06 41.14, 106.54 9.6 M11.94 118.69 C33.67 92.81, 55.89 67.12, 105.43 9.89 M10.86 122.77 C36.34 95.51, 57.97 67.85, 108.14 12.86 M12.68 123.24 C50.99 79.92, 88.16 35.06, 107.74 13.06 M14.08 126.49 C47.85 92.99, 78.13 55.98, 110.31 14.78 M13.53 126.13 C51.45 84.9, 88.26 41.86, 111.68 14.71 M18.62 128.11 C43.82 99.21, 73.71 64.96, 113.94 15.07 M17.63 129.88 C38 104.4, 58.97 80.18, 116.57 15.38 M16.05 132.87 C57.33 90.34, 98 43.01, 117.54 19.72 M17 134.53 C55.78 90.44, 95.94 44.27, 119.91 17.31 M20.18 138.97 C47.22 109.05, 71.14 81.73, 124.66 17.67 M20.4 136.56 C42.7 113.14, 65.01 88.64, 122.66 19.28 M23.91 142.38 C59.68 93.54, 98.64 51.57, 126.51 22.43 M24.19 141.75 C49.3 110.66, 76.2 79.11, 126.02 22.06 M25.1 141.57 C57.94 106.66, 87.63 71.12, 126.59 26.68 M26.17 143.87 C65.46 98.65, 104.38 54.98, 127.92 25.16 M28.61 144.27 C55.29 114.96, 79.67 82.9, 130.12 29.9 M29.67 145.43 C51.32 119.09, 74.94 91.96, 130.54 28.35 M32.98 148.43 C58.24 116.99, 84.29 90.42, 133.29 32.32 M32.17 148.71 C66.62 109, 100.03 70.57, 133.52 31.64 M33.73 151.04 C59.11 124.74, 79.57 100.69, 136.63 33.89 M34.66 150.45 C62.6 116.87, 92.36 84.3, 135.35 36.29 M39.4 152.06 C64.73 120.34, 93.19 89.53, 137.67 37.6 M37.61 153.94 C67.82 121.32, 97.9 86.91, 138 40.07 M38.87 159.21 C67.11 128.81, 93.17 100.19, 138.94 41.4 M40.37 157.69 C65.89 130.15, 90.57 99.72, 140.97 43.25 M45.29 159.44 C81.04 115.83, 116.2 77.6, 143.97 46.26 M45.03 158.95 C70.51 127.63, 96.48 98.81, 143.24 46.6 M48.22 159.98 C83.2 121.33, 117.91 82.38, 145.95 47.41 M48.61 158.74 C81.06 121.21, 113.66 85.23, 145.95 48.61 M52.19 160.82 C81.14 126.17, 110.13 97.68, 148.45 54.07 M53.6 160.34 C79.29 131.48, 105.16 102.89, 147.11 53.33 M58.74 160.9 C81.5 135.5, 107.43 104.01, 146.65 59.45 M57.99 161.5 C90.28 123.46, 122.94 87.96, 148.87 58.27 M62.4 162.21 C87.69 136.35, 112.09 105.54, 148.73 63.78 M63.25 162.51 C88.24 130.65, 116.59 100.32, 148.86 63.43 M66.69 165.7 C87.66 141.03, 106.68 116.61, 151.89 66.26 M66.37 164.11 C94.32 131.66, 122.05 99.34, 152.23 67.32 M72.16 163.36 C92.12 140.59, 116.88 116.12, 152.34 71.37 M71.84 165.57 C88.58 144.45, 104.89 125.72, 151.65 71.23 M78.29 163.88 C93.29 146.27, 108.84 127.33, 151.96 77.84 M77.6 164.41 C96.1 142.18, 114.88 120.63, 151.95 78.17 M81.65 163.49 C102.69 139.3, 120.9 118.28, 150.94 85.87 M83.18 163.14 C108.79 134.52, 133.21 105.51, 150.76 84.15 M89.12 163.93 C100.63 147.89, 115.01 130.14, 150.46 90.7 M88.9 163.29 C110.37 138.81, 131.24 114.32, 151.23 91.68 M94.54 159.65 C111.35 142.3, 129.04 124.75, 148.06 99.27 M94.56 160.61 C106.55 149.26, 117.14 136.18, 149.35 98.54 M102.78 158.36 C122.34 138.5, 139.1 119, 150.27 105.57 M101.49 159.62 C111.73 147.57, 123.46 136.31, 148.58 106.97 M105.76 161.07 C118.86 146.49, 130.32 132.12, 149.26 113.8 M104.54 161.62 C120.53 145.32, 134.06 129.85, 148.59 113.01 M120.12 153.65 C123.07 147.12, 129.77 139.16, 135.15 136.54 M119.83 152.26 C123.43 146.07, 128.18 142.24, 133.41 134.5" stroke="#fd7e14" stroke-width="0.5" fill="none"></path><path d="M95.32 3.38 C104.87 4.91, 115.23 12.18, 123.22 19.28 C131.21 26.39, 138.44 36.3, 143.27 46 C148.11 55.7, 151.55 66.48, 152.23 77.49 C152.91 88.51, 151.29 101.42, 147.37 112.1 C143.45 122.77, 136.13 133.57, 128.74 141.54 C121.34 149.51, 112.63 156.08, 103 159.93 C93.36 163.78, 81.32 165.16, 70.91 164.64 C60.51 164.13, 49.65 162, 40.56 156.84 C31.48 151.68, 22.77 142.48, 16.39 133.67 C10.01 124.85, 4.87 114.63, 2.29 103.94 C-0.29 93.25, -0.9 80.79, 0.91 69.54 C2.73 58.3, 7.62 45.75, 13.19 36.47 C18.75 27.18, 25.83 19.76, 34.31 13.83 C42.79 7.9, 53.61 2.73, 64.08 0.89 C74.54 -0.95, 91.37 2.15, 97.1 2.8 C102.83 3.44, 98.8 3.48, 98.46 4.75 M105.17 5.63 C114.79 8.53, 124.45 16.32, 131.43 24.47 C138.42 32.63, 143.85 43.95, 147.09 54.54 C150.33 65.14, 151.56 77.13, 150.87 88.06 C150.17 99, 147.74 110.36, 142.9 120.16 C138.05 129.97, 130.05 139.72, 121.81 146.9 C113.58 154.08, 103.56 160.42, 93.51 163.25 C83.47 166.09, 71.75 166.16, 61.53 163.9 C51.31 161.63, 40.67 155.71, 32.19 149.65 C23.71 143.58, 16.02 137.07, 10.67 127.5 C5.33 117.93, 1.24 103.71, 0.13 92.24 C-0.98 80.78, 1.24 69.45, 4.03 58.72 C6.82 47.98, 10.5 36.03, 16.85 27.84 C23.19 19.66, 32.44 14.05, 42.11 9.6 C51.79 5.16, 64.32 1.56, 74.88 1.15 C85.44 0.75, 100.84 6.21, 105.47 7.16 C110.09 8.11, 103.14 5.7, 102.63 6.85" stroke="#000000" stroke-width="1" fill="none"></path></g><g transform="translate(987.5998847824103 250.7425479739848) rotate(0 35.15999984741211 25)"><text x="35.15999984741211" y="0" font-family="Virgil, Segoe UI Emoji" font-size="20px" fill="#000000" text-anchor="middle" style="white-space: pre;" direction="ltr" dominant-baseline="text-before-edge">Status</text><text x="35.15999984741211" y="25" font-family="Virgil, Segoe UI Emoji" font-size="20px" fill="#000000" text-anchor="middle" style="white-space: pre;" direction="ltr" dominant-baseline="text-before-edge">Service</text></g><g stroke-linecap="round" transform="translate(1165 245.078857421875) rotate(0 76 82.5)"><path d="M21.91 23.02 C21.91 23.02, 21.91 23.02, 21.91 23.02 M21.91 23.02 C21.91 23.02, 21.91 23.02, 21.91 23.02 M11.74 44.23 C16.27 34.49, 23 29.03, 31.6 17.16 M9.9 43.15 C18.32 34.1, 26.5 24.94, 34.22 15.14 M8.48 50.57 C20.93 37.34, 34.77 21.68, 45.79 9.83 M7.72 52.91 C22.81 35.03, 36.95 17.45, 45.33 9.34 M3.98 61.78 C14.55 46.53, 25.55 37.71, 51.28 4.13 M5.8 60.17 C22.16 41.61, 38.41 23.58, 53.31 6.97 M4.11 68.58 C16.33 50.37, 30.76 34.62, 57.56 6.75 M4.98 67.95 C22.18 47.24, 38.3 28.39, 59.13 6.53 M3.11 73.45 C16.26 61.56, 28.9 46.17, 63.79 2.65 M2.93 74.52 C21.66 55.44, 38.23 34.48, 63.88 4.25 M2.8 82.85 C28.08 52.36, 55.16 20.41, 70.85 3.56 M1.44 81.64 C21.46 61.59, 38.65 41.49, 70.9 2.68 M0.73 87.75 C21.87 66.06, 37.32 44.52, 76.6 4.19 M2.49 89.08 C28.18 57.11, 54.68 27.4, 77.02 2.81 M4.73 92.6 C32.27 58.48, 63.05 26.97, 81.25 0.77 M2.9 93.58 C25.24 69.54, 45.78 46.83, 81.87 2.67 M3.71 97.4 C29.49 68.62, 56 38.38, 88 2.76 M5 98.94 C34.88 62.05, 64.03 28.66, 86.63 3.03 M7.52 100.61 C37.27 64.35, 70.48 28.5, 91.7 3.63 M6.61 102.91 C31.22 74.04, 56.2 44.15, 90.6 4.15 M8.37 106.7 C26.14 84.19, 42.67 66.62, 94.89 5.34 M6.39 106.76 C37.27 73.77, 66.96 38.39, 95.25 6.29 M10.11 112.13 C44.72 69.91, 79.71 28.22, 100.43 9.63 M9.14 111.26 C26.88 88.83, 46.24 68.59, 98.92 6.97 M10.95 115.38 C35.14 82.33, 65.93 52.49, 102.17 6.95 M10.54 116.68 C36.11 83.89, 62.95 55.39, 103.41 7.95 M12.09 119.66 C32.67 96.62, 53.3 74.03, 108.98 9.01 M11.72 121.52 C49.55 76.7, 87.05 33.46, 108.03 9.75 M12.37 122.44 C51.99 82.26, 87.85 39.28, 111.4 9.8 M13.97 124.05 C35.17 99.93, 56.8 78.01, 112.29 10.64 M17 127.19 C37.02 104.76, 57.78 78.33, 115.65 11.79 M15.48 128.04 C41.62 97.18, 66.51 65.28, 113.84 12.88 M17.52 130.88 C44.3 101.69, 68.92 75.29, 119.57 17.44 M17.22 130.25 C51.08 93.9, 83.57 54.73, 118.48 16.24 M22.46 133.48 C60.39 89.76, 97.03 43.14, 120.68 17.72 M19.69 133.95 C45.21 105.14, 70.76 78.89, 120.21 18.48 M21.35 137.96 C51.95 102.59, 80.47 69.12, 125.53 22.6 M22.86 136.91 C50.12 106.09, 78.3 74.69, 124.5 21.87 M24.72 142.28 C58.54 100.61, 93.82 60.6, 125.64 25.03 M24.21 141.4 C59.69 102.09, 93.35 63.3, 126.34 25.17 M27.45 144.18 C58.12 111.62, 84.79 75.44, 129.54 25.01 M26.09 144.92 C49.89 118.92, 71.72 92.02, 130.21 27.64 M28.69 148.59 C53.84 119.49, 80.75 91.91, 134.77 29.48 M29.59 147.73 C67.27 105.24, 103.39 63.66, 132.1 29.07 M35.35 149.51 C57.53 123.58, 82.27 95.76, 135.86 32.43 M34.07 150.62 C54.67 123.88, 74.77 99.43, 135.49 31.7 M39.27 151.4 C61.8 121.88, 92.08 90.97, 139.02 36.33 M36.34 152.34 C68.42 115.27, 99.84 78.13, 138.06 35.81 M39.33 151.98 C71.5 120.53, 101.37 86.08, 138.76 38.88 M40.72 154.4 C64.13 125.78, 88.41 98.26, 140.25 40.42 M44.06 155.22 C69.36 130.75, 89.64 105.04, 143.29 44.57 M43.7 156.09 C67.36 130.47, 89.09 104.47, 140.73 42.78 M46.99 156.09 C76.65 125.37, 105.63 93.57, 143.8 46.6 M49.25 157.15 C80.34 120.04, 113.79 84.68, 143.66 48.41 M50.65 160.55 C81.84 127.56, 109.19 94.4, 143.83 53.95 M52.87 159.86 C79.75 125.81, 109.46 93.9, 146.01 52.09 M54.57 161.58 C93.29 118.79, 129.82 77.7, 148.55 53.82 M55.54 160.98 C81.75 128.91, 109.91 97.01, 146.93 56.31 M60.6 161.63 C82.66 135.91, 109.84 105.96, 150.19 58.71 M61.05 162.28 C94.19 125.2, 124.85 87.84, 149.08 60.35 M64.96 161.19 C99.17 121.99, 130.63 83.89, 152.6 61.06 M66.08 161.01 C96.27 127.23, 125.7 92.24, 151.26 62.98 M70.17 162.21 C96.14 131.2, 124.09 100.54, 152.02 69.62 M70.11 161.46 C86.78 143.18, 103.4 125.18, 151.18 68.72 M75.76 161.68 C94.5 138.89, 112.86 115.35, 152.27 76.59 M76.13 162.38 C96.45 137.38, 118.91 112.01, 152.6 75.07 M82.28 163.56 C100.02 142.61, 116.58 118.98, 149.55 82.43 M80.61 163.04 C99.52 142.15, 116.62 121.49, 152.2 81.32 M87.25 162.81 C100.56 147.52, 111.27 134.05, 151.73 87.62 M85.55 163.21 C110.15 137, 131.78 108.89, 152.76 86.2 M87.89 166.93 C106.76 146.28, 123.95 126.82, 153.67 93.88 M89.12 164.66 C109.37 142.74, 129.36 119.9, 152.63 93.24 M97.63 162.07 C110.88 149.09, 120.35 136.66, 151.9 97.17 M98.2 161.36 C114.39 142.28, 133.08 121.42, 152.27 97.72 M103.76 158.25 C119.57 142.19, 130.85 127.57, 147.37 109.74 M106.04 158.62 C114.94 148.18, 122.75 139.17, 149.09 108.67 M115.74 153.92 C121.43 146.2, 129.9 136.89, 142.54 121.04 M116.55 151.68 C121.85 144.35, 129.3 138.96, 144.51 121.83" stroke="#fd7e14" stroke-width="0.5" fill="none"></path><path d="M50.66 4.94 C59.36 0.32, 70.27 -0.32, 80.37 0.52 C90.47 1.36, 102.11 4.86, 111.25 9.99 C120.39 15.13, 128.8 22.69, 135.21 31.32 C141.62 39.96, 147.17 50.9, 149.73 61.78 C152.29 72.66, 152.49 85.58, 150.58 96.62 C148.66 107.65, 144.01 118.76, 138.22 127.98 C132.44 137.21, 124.39 146.04, 115.88 151.95 C107.36 157.87, 97.23 161.95, 87.14 163.48 C77.04 165, 65.41 164.13, 55.31 161.09 C45.2 158.06, 34.27 152.4, 26.51 145.29 C18.75 138.17, 13.32 128.25, 8.74 118.41 C4.17 108.56, -0.31 97.44, -0.95 86.2 C-1.58 74.97, 1.1 61.58, 4.95 51.01 C8.8 40.43, 13.77 30.52, 22.15 22.74 C30.53 14.95, 48.93 7.38, 55.22 4.3 C61.51 1.23, 59.58 3.26, 59.9 4.27 M57.14 3.69 C66.16 -0.07, 77.98 0.84, 87.93 2.38 C97.89 3.91, 108.36 6.97, 116.85 12.88 C125.35 18.79, 133.45 28.39, 138.92 37.82 C144.38 47.25, 148.01 58.19, 149.65 69.49 C151.28 80.78, 151.28 94.64, 148.72 105.59 C146.17 116.55, 140.93 127.01, 134.32 135.23 C127.7 143.44, 118.18 149.69, 109.05 154.87 C99.92 160.05, 89.43 165.57, 79.54 166.31 C69.65 167.05, 59.17 163.39, 49.71 159.31 C40.25 155.22, 30.5 149.55, 22.8 141.81 C15.1 134.06, 7.28 123.65, 3.5 112.82 C-0.27 102, -0.8 87.99, 0.15 76.85 C1.09 65.72, 4.7 55.81, 9.18 46.01 C13.66 36.21, 19.17 25.32, 27.04 18.03 C34.91 10.74, 51.3 4.59, 56.38 2.27 C61.46 -0.04, 57.23 2.59, 57.51 4.16" stroke="#000000" stroke-width="1" fill="none"></path></g><g transform="translate(1205.5998847824103 302.7425479739848) rotate(0 35.15999984741211 25)"><text x="35.15999984741211" y="0" font-family="Virgil, Segoe UI Emoji" font-size="20px" fill="#000000" text-anchor="middle" style="white-space: pre;" direction="ltr" dominant-baseline="text-before-edge">Status</text><text x="35.15999984741211" y="25" font-family="Virgil, Segoe UI Emoji" font-size="20px" fill="#000000" text-anchor="middle" style="white-space: pre;" direction="ltr" dominant-baseline="text-before-edge">Service</text></g><g stroke-linecap="round"><g transform="translate(1060.7138966806856 198.33836465968278) rotate(0 29.125583799852507 -39.098153126796205)"><path d="M-0.21 -0.03 C9.62 -12.61, 50.34 -63.7, 60.03 -76.64 M-1.78 -1.08 C7.89 -13.87, 49.29 -65.64, 59.63 -78.17" stroke="#000000" stroke-width="1" fill="none"></path></g><g transform="translate(1060.7138966806856 198.33836465968278) rotate(0 29.125583799852507 -39.098153126796205)"><path d="M49.83 -48.06 C55.82 -62.61, 57.93 -73.62, 59.85 -80.11 M50.05 -50.19 C51.98 -58.97, 55.17 -68.03, 59.67 -79.03" stroke="#000000" stroke-width="1" fill="none"></path></g><g transform="translate(1060.7138966806856 198.33836465968278) rotate(0 29.125583799852507 -39.098153126796205)"><path d="M33.88 -60.97 C45.97 -70.46, 54.3 -76.43, 59.85 -80.11 M34.1 -63.1 C41.14 -67.78, 49.4 -72.74, 59.67 -79.03" stroke="#000000" stroke-width="1" fill="none"></path></g></g><mask></mask><g stroke-linecap="round"><g transform="translate(1207.090748117459 246.28948154078614) rotate(0 -4.742936777249497 -61.89301328473633)"><path d="M0.07 -0.27 C-1.35 -21, -8.07 -103.3, -9.56 -123.52 M-1.35 -1.46 C-2.31 -22.12, -5.93 -102.09, -7.33 -122.4" stroke="#000000" stroke-width="1" fill="none"></path></g><g transform="translate(1207.090748117459 246.28948154078614) rotate(0 -4.742936777249497 -61.89301328473633)"><path d="M4.02 -96.37 C0.41 -101.09, 1.11 -107.64, -7.95 -121.57 M3.72 -94.77 C0.94 -103.34, -3.09 -112.94, -8.33 -122.94" stroke="#000000" stroke-width="1" fill="none"></path></g><g transform="translate(1207.090748117459 246.28948154078614) rotate(0 -4.742936777249497 -61.89301328473633)"><path d="M-16.47 -95.23 C-15.71 -100.21, -10.63 -107, -7.95 -121.57 M-16.77 -93.64 C-13.07 -102.65, -10.64 -112.6, -8.33 -122.94" stroke="#000000" stroke-width="1" fill="none"></path></g></g><mask></mask><g stroke-linecap="round" transform="translate(812 603.073486328125) rotate(0 66 48.5)"><path d="M4.95 29.48 C4.95 29.48, 4.95 29.48, 4.95 29.48 M4.95 29.48 C4.95 29.48, 4.95 29.48, 4.95 29.48 M3.58 38.45 C11.07 26.69, 23.24 15.98, 27.3 10.18 M3.15 38.27 C11.39 27.21, 21.56 16.76, 27.14 10.62 M2.5 44.6 C13.06 34.66, 24.2 21.53, 33.03 6.44 M1.22 45.78 C10.12 34.39, 20.16 24.03, 34.58 7.35 M0.31 50.09 C18.36 32.29, 35.27 15.85, 41.04 6.34 M2.5 50.79 C16.22 36.47, 28.92 19.47, 42.84 4.43 M1.61 57.71 C14.56 42.81, 28.47 27.64, 50.31 2.4 M2.94 55.51 C20.81 35.71, 36.22 17.03, 49.65 2.36 M3.42 58.25 C19.13 41.24, 36.3 26.77, 57.49 1.68 M4.32 60.71 C20.87 43.14, 35.26 26.02, 56 0.63 M7.7 65.24 C19.31 51.5, 28.66 36.07, 59.55 2.7 M6.91 64.36 C18.94 49.44, 32.42 34.62, 60.63 0.73 M7.42 69.21 C22.84 48.79, 38.87 31.25, 65.76 3.48 M7.47 67.95 C20.94 54.37, 32.46 39.26, 66.12 2.12 M9.9 74.45 C32.58 47.06, 52.87 20.08, 71.11 0.55 M8.62 73.21 C25.07 55.34, 39.64 37.18, 70.25 1.29 M12.72 74.47 C35.5 48.71, 61.1 18.32, 77.54 3.45 M12.74 75.62 C30.22 55.16, 48.9 33.69, 75.27 2.23 M16.54 76.3 C38.23 53.98, 61.64 27, 82.05 2.7 M16.8 76.67 C31.34 61.42, 46.27 44.26, 81.96 2.43 M21.02 80 C32.45 63.8, 49.16 43.75, 85.25 1.09 M18.23 79.35 C39.05 57.17, 60.51 31.26, 86.23 2.1 M22.79 84.34 C45.02 55.31, 69.3 28.25, 91.48 6.16 M22.96 81.89 C46.48 56.95, 68.21 29.94, 91.22 4.76 M24.81 85.85 C40.52 69.12, 52.14 52.36, 92.68 5.19 M24.77 84.78 C43.9 64.11, 61.93 43.79, 93.18 6.12 M29.71 89.3 C58.25 57.52, 85.33 22.11, 97.82 8.69 M28.56 87.24 C55.42 58.1, 81.56 27.46, 96.86 7.67 M33.14 90.74 C55.07 63.39, 79.67 36.29, 102.87 8.2 M31.8 90.26 C54.37 63.74, 78.19 35.59, 101.53 10.4 M37.04 91.43 C57.5 66.89, 81.05 40.94, 106.8 12.26 M35.72 90.58 C60.7 64.94, 82.24 39.62, 104.96 12.78 M39.07 93.41 C55.82 72.36, 72.38 56.44, 108.23 13.64 M40.77 92.18 C62.08 67.52, 84.01 41.23, 110.06 12.05 M45.2 94.22 C65.95 69.93, 86.33 46.4, 114.83 16.39 M45.22 93.05 C70.72 62.46, 97.52 32.61, 112.3 15.2 M48.39 96.39 C69.71 69.97, 89.51 46.21, 113.89 16.77 M49.82 94.67 C75.61 64, 100.53 34.83, 116.28 17.97 M52.62 95.44 C78.16 66.96, 99.73 42.77, 118.36 21.08 M53.86 96.02 C74.64 71.62, 95.38 46.82, 117.73 20.58 M56.85 95.91 C81.29 69.9, 106.7 42.12, 120.9 24.33 M57.09 97.6 C79.59 71.69, 102.57 46.82, 121.62 24.53 M63.05 99.34 C80.97 74.15, 100.51 51.53, 123.78 27.57 M61.78 97.38 C82.03 74.12, 104.96 48.37, 124 27.78 M70.16 97.98 C80.92 80.47, 94.87 65.63, 125.67 31.82 M68.66 96.58 C90.01 71.91, 109.91 46.9, 126.85 30.84 M76.18 93.63 C96.89 72.13, 119.07 47.66, 130.84 32.11 M75.04 96.46 C88.2 82.21, 99.5 67.68, 129.24 32.68 M80.08 94.83 C95.9 77.6, 114.1 56.2, 131.96 35.48 M80.67 93.5 C93.54 79.08, 107.29 65.26, 132.11 36.79 M87.82 95.1 C104.29 74.11, 122.96 52.81, 132.67 41.97 M87.82 93.68 C102.27 75.58, 117.76 55.55, 132.93 42.16 M91.73 93.73 C104.16 82.55, 112.69 71.92, 130.91 48.85 M92.6 93.23 C107.99 75.45, 123.56 58.23, 132.93 47.52 M104.35 88.98 C113.02 75.56, 120.19 67.97, 133.66 52.65 M102.88 87.88 C113.01 76.93, 122.19 64.36, 131.87 53.35 M112.73 81.89 C118.13 72.4, 126.7 63.91, 134.88 58.9 M112.47 82.61 C119.09 73.72, 125.66 66.41, 134.02 59.64" stroke="#40c057" stroke-width="0.5" fill="none"></path><path d="M55.05 -0.18 C64.63 -2.25, 76.76 -0.55, 86.31 1.93 C95.87 4.41, 105.17 9.36, 112.41 14.72 C119.64 20.08, 126.69 27.11, 129.71 34.11 C132.74 41.11, 132.5 49.26, 130.56 56.73 C128.63 64.2, 124.47 73.04, 118.1 78.93 C111.74 84.81, 101.78 88.95, 92.38 92.04 C82.97 95.12, 71.87 97.89, 61.66 97.45 C51.46 97, 39.88 93.44, 31.16 89.37 C22.43 85.31, 14.46 79.55, 9.34 73.06 C4.22 66.58, 1.12 57.75, 0.41 50.45 C-0.29 43.16, 0.81 36.04, 5.11 29.29 C9.41 22.55, 16.27 14.93, 26.2 9.98 C36.13 5.03, 56.81 0.94, 64.71 -0.4 C72.6 -1.73, 73.53 1.16, 73.56 1.96 M48.87 2.66 C57.97 0.37, 69.44 0.82, 79.44 2.32 C89.44 3.82, 101.04 6.94, 108.89 11.66 C116.73 16.39, 122.89 23.67, 126.51 30.67 C130.13 37.66, 131.61 46.04, 130.6 53.62 C129.58 61.2, 126.11 70.02, 120.41 76.13 C114.72 82.25, 105.53 86.68, 96.41 90.31 C87.29 93.94, 75.46 97.44, 65.68 97.92 C55.89 98.41, 46.36 97.01, 37.72 93.23 C29.08 89.46, 20.04 81.38, 13.84 75.28 C7.65 69.18, 1.99 63.75, 0.57 56.64 C-0.85 49.53, 1.94 39.88, 5.33 32.62 C8.71 25.37, 13.52 18.49, 20.89 13.13 C28.25 7.77, 44.88 2.38, 49.5 0.46 C54.11 -1.45, 48.28 0.59, 48.57 1.64" stroke="#000000" stroke-width="1" fill="none"></path></g><g transform="translate(845.9609496951059 639.2788074405775) rotate(0 31.87000274658203 12.5)"><text x="31.87000274658203" y="0" font-family="Virgil, Segoe UI Emoji" font-size="20px" fill="#000000" text-anchor="middle" style="white-space: pre;" direction="ltr" dominant-baseline="text-before-edge">grpcurl</text></g><g mask="url(#mask-PQLVRK_iQIx1rTdm-v8Vy)" stroke-linecap="round"><g transform="translate(838.3513391438132 600.2445523143657) rotate(0 53.61509478980906 -126.42226485741958)"><path d="M1.09 1.12 C2.87 -20.5, -8.42 -86.73, 9.5 -128.95 C27.42 -171.18, 91.88 -231.56, 108.6 -252.23 M0.2 0.66 C2.03 -20.92, -8.75 -85.59, 9.18 -128.03 C27.12 -170.47, 91.5 -233.36, 107.8 -253.96" stroke="#000000" stroke-width="1" fill="none"></path></g><g transform="translate(838.3513391438132 600.2445523143657) rotate(0 53.61509478980906 -126.42226485741958)"><path d="M98.62 -224.08 C96.85 -231.87, 102.97 -235.48, 108.5 -254.61 M96.19 -226.69 C100.58 -234.75, 104.46 -245.06, 108.27 -253.81" stroke="#000000" stroke-width="1" fill="none"></path></g><g transform="translate(838.3513391438132 600.2445523143657) rotate(0 53.61509478980906 -126.42226485741958)"><path d="M83.28 -237.7 C84.68 -242.89, 93.88 -243.76, 108.5 -254.61 M80.85 -240.31 C90.26 -243.83, 99.1 -249.73, 108.27 -253.81" stroke="#000000" stroke-width="1" fill="none"></path></g></g><mask id="mask-PQLVRK_iQIx1rTdm-v8Vy"><rect x="0" y="0" fill="#fff" width="1047" height="953.6361897810866"></rect><rect x="770.1607859120609" y="462.46619479594267" fill="#000" width="152.99200439453125" height="20" opacity="1"></rect></mask><g transform="translate(770.1607859120609 462.46619479594267) rotate(0 121.80564802156141 11.356092661003458)"><text x="76.49600219726562" y="0" font-family="Virgil, Segoe UI Emoji" font-size="16px" fill="#000000" text-anchor="middle" style="white-space: pre;" direction="ltr" dominant-baseline="text-before-edge">4. FetchOnlineUsers</text></g><g mask="url(#mask-JdnoOwNelTH8LLOx6C0fs)" stroke-linecap="round"><g transform="translate(1042 373.073486328125) rotate(0 -43.37701596874274 129.2421728172479)"><path d="M0.68 -0.63 C-4.27 24.92, -14.58 109.14, -29.22 152.22 C-43.85 195.3, -77.2 240.29, -87.13 257.87 M-0.42 1.65 C-5.58 26.91, -15.77 107.3, -30.28 150.21 C-44.78 193.13, -77.66 241.04, -87.44 259.12" stroke="#000000" stroke-width="1" fill="none"></path></g><g transform="translate(1042 373.073486328125) rotate(0 -43.37701596874274 129.2421728172479)"><path d="M-82.89 229.29 C-83.64 241.13, -86.12 248.4, -87.91 257.74 M-80.89 229.25 C-84.03 236.76, -84.45 243.84, -86.5 258.24" stroke="#000000" stroke-width="1" fill="none"></path></g><g transform="translate(1042 373.073486328125) rotate(0 -43.37701596874274 129.2421728172479)"><path d="M-65.26 239.78 C-71.89 248.16, -80.36 251.88, -87.91 257.74 M-63.25 239.74 C-70.72 244.51, -75.51 248.99, -86.5 258.24" stroke="#000000" stroke-width="1" fill="none"></path></g></g><mask id="mask-JdnoOwNelTH8LLOx6C0fs"><rect x="0" y="0" fill="#fff" width="1230" height="731.073486328125"></rect><rect x="915.2560043334961" y="505.073486328125" fill="#000" width="195.4879913330078" height="40" opacity="1"></rect></mask><g transform="translate(915.2560043334961 505.073486328125) rotate(0 83.36697969776117 -2.757827182752095)"><text x="97.7439956665039" y="0" font-family="Virgil, Segoe UI Emoji" font-size="16px" fill="#000000" text-anchor="middle" style="white-space: pre;" direction="ltr" dominant-baseline="text-before-edge">"There was 1 user</text><text x="97.7439956665039" y="20" font-family="Virgil, Segoe UI Emoji" font-size="16px" fill="#000000" text-anchor="middle" style="white-space: pre;" direction="ltr" dominant-baseline="text-before-edge">online in the last 3 mins"</text></g></svg>